<?xml version="1.0" standalone="no"?>
 <!DOCTYPE svg PUBLIC "-//W3C//DTD SVG 1.1//EN" 
 "http://www.w3.org/Graphics/SVG/1.1/DTD/svg11.dtd"> 
<svg
  xmlns:svg="http://www.w3.org/2000/svg"
  xmlns="http://www.w3.org/2000/svg"
  xmlns:xlink="http://www.w3.org/1999/xlink"
  version="1.1"
  width="297.0022mm" height="210.0072mm" viewBox="0.0000 0.0000 297.0022 210.0072">
<title>SVG Image created as toy_car_atmega8_board-B_Cu.svg date 2024/10/18 20:12:59 </title>
  <desc>Image generated by PCBNEW </desc>
<g style="fill:#000000; fill-opacity:1.0000;stroke:#000000; stroke-opacity:1.0000;
stroke-linecap:round; stroke-linejoin:round;"
 transform="translate(0 0) scale(1 1)">
</g>
<g style="fill:#000000; fill-opacity:0.0; 
stroke:#000000; stroke-width:0.0000; stroke-opacity:1; 
stroke-linecap:round; stroke-linejoin:round;">
<g >
</g>
<g style="fill:#000000; fill-opacity:1.0000; 
stroke:#000000; stroke-width:0.0000; stroke-opacity:1; 
stroke-linecap:round; stroke-linejoin:round;">
<circle cx="110.4900" cy="38.8620" r="0.8000" /> 
</g>
<g style="fill:#000000; fill-opacity:1.0000; 
stroke:#000000; stroke-width:0.0212; stroke-opacity:1; 
stroke-linecap:round; stroke-linejoin:round;">
</g>
<g style="fill:#000000; fill-opacity:1.0000; 
stroke:#000000; stroke-width:0.0000; stroke-opacity:1; 
stroke-linecap:round; stroke-linejoin:round;">
<circle cx="118.1100" cy="38.8620" r="0.8000" /> 
</g>
<g >
</g>
<g style="fill:#000000; fill-opacity:1.0000; 
stroke:#000000; stroke-width:0.0000; stroke-opacity:1; 
stroke-linecap:round; stroke-linejoin:round;">
<circle cx="81.9350" cy="73.6600" r="0.8000" /> 
</g>
<g style="fill:#000000; fill-opacity:1.0000; 
stroke:#000000; stroke-width:0.0212; stroke-opacity:1; 
stroke-linecap:round; stroke-linejoin:round;">
</g>
<g style="fill:#000000; fill-opacity:1.0000; 
stroke:#000000; stroke-width:0.0000; stroke-opacity:1; 
stroke-linecap:round; stroke-linejoin:round;">
<circle cx="84.4350" cy="73.6600" r="0.8000" /> 
</g>
<g style="fill:#000000; fill-opacity:1.0000; 
stroke:#000000; stroke-width:0.0212; stroke-opacity:1; 
stroke-linecap:round; stroke-linejoin:round;">
</g>
<g >
</g>
<g style="fill:#000000; fill-opacity:1.0000; 
stroke:#000000; stroke-width:0.0212; stroke-opacity:1; 
stroke-linecap:round; stroke-linejoin:round;">
</g>
<g style="fill:#000000; fill-opacity:1.0000; 
stroke:#000000; stroke-width:0.0000; stroke-opacity:1; 
stroke-linecap:round; stroke-linejoin:round;">
<path style="fill:#000000; fill-opacity:1.0000; 
stroke:#000000; stroke-width:0.0000; stroke-opacity:1; 
stroke-linecap:round; stroke-linejoin:round;fill-rule:evenodd;"
d="M 118.3250,54.9030
118.3250,56.6030
116.6250,56.6030
116.6250,54.9030
Z" /> 
<circle cx="117.4750" cy="53.2130" r="0.8500" /> 
<circle cx="117.4750" cy="50.6730" r="0.8500" /> 
<circle cx="117.4750" cy="48.1330" r="0.8500" /> 
<circle cx="117.4750" cy="45.5930" r="0.8500" /> 
<circle cx="117.4750" cy="43.0530" r="0.8500" /> 
</g>
<g >
</g>
<g style="fill:#000000; fill-opacity:1.0000; 
stroke:#000000; stroke-width:0.0000; stroke-opacity:1; 
stroke-linecap:round; stroke-linejoin:round;">
<path style="fill:#000000; fill-opacity:1.0000; 
stroke:#000000; stroke-width:0.0000; stroke-opacity:1; 
stroke-linecap:round; stroke-linejoin:round;fill-rule:evenodd;"
d="M 118.3250,76.4930
118.3250,78.1930
116.6250,78.1930
116.6250,76.4930
Z" /> 
<circle cx="117.4750" cy="74.8030" r="0.8500" /> 
<circle cx="117.4750" cy="72.2630" r="0.8500" /> 
<circle cx="117.4750" cy="69.7230" r="0.8500" /> 
<circle cx="117.4750" cy="67.1830" r="0.8500" /> 
<circle cx="117.4750" cy="64.6430" r="0.8500" /> 
</g>
<g >
</g>
<g style="fill:#000000; fill-opacity:1.0000; 
stroke:#000000; stroke-width:0.0000; stroke-opacity:1; 
stroke-linecap:round; stroke-linejoin:round;">
<circle cx="100.5840" cy="40.3860" r="0.8000" /> 
</g>
<g style="fill:#000000; fill-opacity:1.0000; 
stroke:#000000; stroke-width:0.0212; stroke-opacity:1; 
stroke-linecap:round; stroke-linejoin:round;">
</g>
<g style="fill:#000000; fill-opacity:1.0000; 
stroke:#000000; stroke-width:0.0000; stroke-opacity:1; 
stroke-linecap:round; stroke-linejoin:round;">
<circle cx="92.9640" cy="40.3860" r="0.8000" /> 
</g>
<g >
</g>
<g style="fill:#000000; fill-opacity:1.0000; 
stroke:#000000; stroke-width:0.0000; stroke-opacity:1; 
stroke-linecap:round; stroke-linejoin:round;">
<circle cx="97.8650" cy="49.2400" r="1.0000" /> 
</g>
<g style="fill:#000000; fill-opacity:1.0000; 
stroke:#000000; stroke-width:0.0212; stroke-opacity:1; 
stroke-linecap:round; stroke-linejoin:round;">
</g>
<g style="fill:#000000; fill-opacity:1.0000; 
stroke:#000000; stroke-width:0.0000; stroke-opacity:1; 
stroke-linecap:round; stroke-linejoin:round;">
<circle cx="91.3650" cy="49.2400" r="1.0000" /> 
</g>
<g style="fill:#000000; fill-opacity:1.0000; 
stroke:#000000; stroke-width:0.0212; stroke-opacity:1; 
stroke-linecap:round; stroke-linejoin:round;">
</g>
<g style="fill:#000000; fill-opacity:1.0000; 
stroke:#000000; stroke-width:0.0000; stroke-opacity:1; 
stroke-linecap:round; stroke-linejoin:round;">
<circle cx="97.8650" cy="44.7400" r="1.0000" /> 
</g>
<g style="fill:#000000; fill-opacity:1.0000; 
stroke:#000000; stroke-width:0.0212; stroke-opacity:1; 
stroke-linecap:round; stroke-linejoin:round;">
</g>
<g style="fill:#000000; fill-opacity:1.0000; 
stroke:#000000; stroke-width:0.0000; stroke-opacity:1; 
stroke-linecap:round; stroke-linejoin:round;">
<circle cx="91.3650" cy="44.7400" r="1.0000" /> 
</g>
<g style="fill:#000000; fill-opacity:1.0000; 
stroke:#000000; stroke-width:0.0212; stroke-opacity:1; 
stroke-linecap:round; stroke-linejoin:round;">
</g>
<g >
</g>
<g style="fill:#000000; fill-opacity:1.0000; 
stroke:#000000; stroke-width:0.0212; stroke-opacity:1; 
stroke-linecap:round; stroke-linejoin:round;">
</g>
<g style="fill:#000000; fill-opacity:1.0000; 
stroke:#000000; stroke-width:0.0000; stroke-opacity:1; 
stroke-linecap:round; stroke-linejoin:round;">
<path style="fill:#000000; fill-opacity:1.0000; 
stroke:#000000; stroke-width:0.0000; stroke-opacity:1; 
stroke-linecap:round; stroke-linejoin:round;fill-rule:evenodd;"
d="M 82.0810,40.0880
82.0810,38.3880
83.7810,38.3880
83.7810,40.0880
Z" /> 
<circle cx="82.9310" cy="41.7780" r="0.8500" /> 
</g>
<g >
</g>
<g style="fill:#000000; fill-opacity:1.0000; 
stroke:#000000; stroke-width:0.0000; stroke-opacity:1; 
stroke-linecap:round; stroke-linejoin:round;">
<path style="fill:#000000; fill-opacity:1.0000; 
stroke:#000000; stroke-width:0.0000; stroke-opacity:1; 
stroke-linecap:round; stroke-linejoin:round;fill-rule:evenodd;"
d="M 94.5270,77.1280
96.2270,77.1280
96.2270,78.8280
94.5270,78.8280
Z" /> 
<circle cx="92.8370" cy="77.9780" r="0.8500" /> 
<circle cx="90.2970" cy="77.9780" r="0.8500" /> 
<circle cx="87.7570" cy="77.9780" r="0.8500" /> 
<circle cx="85.2170" cy="77.9780" r="0.8500" /> 
<circle cx="82.6770" cy="77.9780" r="0.8500" /> 
</g>
<g >
</g>
<g style="fill:#000000; fill-opacity:1.0000; 
stroke:#000000; stroke-width:0.0000; stroke-opacity:1; 
stroke-linecap:round; stroke-linejoin:round;">
<path style="fill:#000000; fill-opacity:1.0000; 
stroke:#000000; stroke-width:0.0000; stroke-opacity:1; 
stroke-linecap:round; stroke-linejoin:round;fill-rule:evenodd;"
d="M 81.8270,50.1410
81.8270,48.4410
83.5270,48.4410
83.5270,50.1410
Z" /> 
<circle cx="82.6770" cy="51.8310" r="0.8500" /> 
<circle cx="82.6770" cy="54.3710" r="0.8500" /> 
<circle cx="82.6770" cy="56.9110" r="0.8500" /> 
<circle cx="82.6770" cy="59.4510" r="0.8500" /> 
<circle cx="82.6770" cy="61.9910" r="0.8500" /> 
<circle cx="82.6770" cy="64.5310" r="0.8500" /> 
<circle cx="82.6770" cy="67.0710" r="0.8500" /> 
</g>
<g >
</g>
<g style="fill:#000000; fill-opacity:1.0000; 
stroke:#000000; stroke-width:0.0000; stroke-opacity:1; 
stroke-linecap:round; stroke-linejoin:round;">
<circle cx="90.9520" cy="68.4530" r="0.8000" /> 
</g>
<g style="fill:#000000; fill-opacity:1.0000; 
stroke:#000000; stroke-width:0.0212; stroke-opacity:1; 
stroke-linecap:round; stroke-linejoin:round;">
</g>
<g style="fill:#000000; fill-opacity:1.0000; 
stroke:#000000; stroke-width:0.0000; stroke-opacity:1; 
stroke-linecap:round; stroke-linejoin:round;">
<circle cx="93.4520" cy="68.4530" r="0.8000" /> 
</g>
<g style="fill:#000000; fill-opacity:1.0000; 
stroke:#000000; stroke-width:0.0212; stroke-opacity:1; 
stroke-linecap:round; stroke-linejoin:round;">
</g>
<g >
</g>
<g style="fill:#000000; fill-opacity:1.0000; 
stroke:#000000; stroke-width:0.0212; stroke-opacity:1; 
stroke-linecap:round; stroke-linejoin:round;">
</g>
<g style="fill:#000000; fill-opacity:1.0000; 
stroke:#000000; stroke-width:0.0000; stroke-opacity:1; 
stroke-linecap:round; stroke-linejoin:round;">
<path style="fill:#000000; fill-opacity:1.0000; 
stroke:#000000; stroke-width:0.0000; stroke-opacity:1; 
stroke-linecap:round; stroke-linejoin:round;fill-rule:evenodd;"
d="M 90.8160,38.7240
90.8160,40.5240
89.0160,40.5240
89.0160,38.7240
Z" /> 
<circle cx="87.3760" cy="39.6240" r="0.9000" /> 
</g>
<g style="fill:#000000; fill-opacity:1.0000; 
stroke:#000000; stroke-width:0.0212; stroke-opacity:1; 
stroke-linecap:round; stroke-linejoin:round;">
</g>
<g >
</g>
<g style="fill:#000000; fill-opacity:1.0000; 
stroke:#000000; stroke-width:0.0212; stroke-opacity:1; 
stroke-linecap:round; stroke-linejoin:round;">
</g>
<g style="fill:#000000; fill-opacity:1.0000; 
stroke:#000000; stroke-width:0.0000; stroke-opacity:1; 
stroke-linecap:round; stroke-linejoin:round;">
<circle cx="87.2490" cy="47.2240" r="0.8000" /> 
</g>
<g style="fill:#000000; fill-opacity:1.0000; 
stroke:#000000; stroke-width:0.0212; stroke-opacity:1; 
stroke-linecap:round; stroke-linejoin:round;">
</g>
<g style="fill:#000000; fill-opacity:1.0000; 
stroke:#000000; stroke-width:0.0000; stroke-opacity:1; 
stroke-linecap:round; stroke-linejoin:round;">
<circle cx="87.2490" cy="44.7240" r="0.8000" /> 
</g>
<g style="fill:#000000; fill-opacity:1.0000; 
stroke:#000000; stroke-width:0.0212; stroke-opacity:1; 
stroke-linecap:round; stroke-linejoin:round;">
</g>
<g >
</g>
<g style="fill:#000000; fill-opacity:1.0000; 
stroke:#000000; stroke-width:0.0212; stroke-opacity:1; 
stroke-linecap:round; stroke-linejoin:round;">
</g>
<g style="fill:#000000; fill-opacity:1.0000; 
stroke:#000000; stroke-width:0.0000; stroke-opacity:1; 
stroke-linecap:round; stroke-linejoin:round;">
<circle cx="119.2330" cy="60.8330" r="0.8000" /> 
</g>
<g style="fill:#000000; fill-opacity:1.0000; 
stroke:#000000; stroke-width:0.0212; stroke-opacity:1; 
stroke-linecap:round; stroke-linejoin:round;">
</g>
<g style="fill:#000000; fill-opacity:1.0000; 
stroke:#000000; stroke-width:0.0000; stroke-opacity:1; 
stroke-linecap:round; stroke-linejoin:round;">
<circle cx="116.7330" cy="60.8330" r="0.8000" /> 
</g>
<g style="fill:#000000; fill-opacity:1.0000; 
stroke:#000000; stroke-width:0.0212; stroke-opacity:1; 
stroke-linecap:round; stroke-linejoin:round;">
</g>
<g >
</g>
<g style="fill:#000000; fill-opacity:1.0000; 
stroke:#000000; stroke-width:0.0212; stroke-opacity:1; 
stroke-linecap:round; stroke-linejoin:round;">
</g>
<g style="fill:#000000; fill-opacity:1.0000; 
stroke:#000000; stroke-width:0.0000; stroke-opacity:1; 
stroke-linecap:round; stroke-linejoin:round;">
<path style="fill:#000000; fill-opacity:1.0000; 
stroke:#000000; stroke-width:0.0000; stroke-opacity:1; 
stroke-linecap:round; stroke-linejoin:round;fill-rule:evenodd;"
d="M 104.2390,43.8630
104.2390,42.2630
105.8390,42.2630
105.8390,43.8630
Z" /> 
<circle cx="105.0390" cy="45.6030" r="0.8000" /> 
<circle cx="105.0390" cy="48.1430" r="0.8000" /> 
<circle cx="105.0390" cy="50.6830" r="0.8000" /> 
<circle cx="105.0390" cy="53.2230" r="0.8000" /> 
<circle cx="105.0390" cy="55.7630" r="0.8000" /> 
<circle cx="105.0390" cy="58.3030" r="0.8000" /> 
<circle cx="105.0390" cy="60.8430" r="0.8000" /> 
<circle cx="105.0390" cy="63.3830" r="0.8000" /> 
<circle cx="105.0390" cy="65.9230" r="0.8000" /> 
<circle cx="105.0390" cy="68.4630" r="0.8000" /> 
<circle cx="105.0390" cy="71.0030" r="0.8000" /> 
<circle cx="105.0390" cy="73.5430" r="0.8000" /> 
<circle cx="105.0390" cy="76.0830" r="0.8000" /> 
<circle cx="112.6590" cy="76.0830" r="0.8000" /> 
<circle cx="112.6590" cy="73.5430" r="0.8000" /> 
<circle cx="112.6590" cy="71.0030" r="0.8000" /> 
<circle cx="112.6590" cy="68.4630" r="0.8000" /> 
<circle cx="112.6590" cy="65.9230" r="0.8000" /> 
<circle cx="112.6590" cy="63.3830" r="0.8000" /> 
<circle cx="112.6590" cy="60.8430" r="0.8000" /> 
<circle cx="112.6590" cy="58.3030" r="0.8000" /> 
<circle cx="112.6590" cy="55.7630" r="0.8000" /> 
<circle cx="112.6590" cy="53.2230" r="0.8000" /> 
<circle cx="112.6590" cy="50.6830" r="0.8000" /> 
<circle cx="112.6590" cy="48.1430" r="0.8000" /> 
<circle cx="112.6590" cy="45.6030" r="0.8000" /> 
<circle cx="112.6590" cy="43.0630" r="0.8000" /> 
</g>
<g >
</g>
<g style="fill:#000000; fill-opacity:1.0000; 
stroke:#000000; stroke-width:0.0000; stroke-opacity:1; 
stroke-linecap:round; stroke-linejoin:round;">
<circle cx="98.2980" cy="67.3470" r="0.7500" /> 
</g>
<g style="fill:#000000; fill-opacity:1.0000; 
stroke:#000000; stroke-width:0.0212; stroke-opacity:1; 
stroke-linecap:round; stroke-linejoin:round;">
</g>
<g style="fill:#000000; fill-opacity:1.0000; 
stroke:#000000; stroke-width:0.0000; stroke-opacity:1; 
stroke-linecap:round; stroke-linejoin:round;">
<circle cx="98.2980" cy="62.4470" r="0.7500" /> 
</g>
<g style="fill:#000000; fill-opacity:1.0000; 
stroke:#000000; stroke-width:0.0212; stroke-opacity:1; 
stroke-linecap:round; stroke-linejoin:round;">
</g>
<g >
</g>
<g style="fill:#000000; fill-opacity:1.0000; 
stroke:#000000; stroke-width:0.0212; stroke-opacity:1; 
stroke-linecap:round; stroke-linejoin:round;">
</g>
<g style="fill:#000000; fill-opacity:1.0000; 
stroke:#000000; stroke-width:0.0000; stroke-opacity:1; 
stroke-linecap:round; stroke-linejoin:round;">
<circle cx="90.9520" cy="61.2140" r="0.8000" /> 
</g>
<g style="fill:#000000; fill-opacity:1.0000; 
stroke:#000000; stroke-width:0.0212; stroke-opacity:1; 
stroke-linecap:round; stroke-linejoin:round;">
</g>
<g style="fill:#000000; fill-opacity:1.0000; 
stroke:#000000; stroke-width:0.0000; stroke-opacity:1; 
stroke-linecap:round; stroke-linejoin:round;">
<circle cx="93.4520" cy="61.2140" r="0.8000" /> 
</g>
<g style="fill:#000000; fill-opacity:1.0000; 
stroke:#000000; stroke-width:0.0212; stroke-opacity:1; 
stroke-linecap:round; stroke-linejoin:round;">
</g>
<g >
</g>
<g style="fill:#000000; fill-opacity:1.0000; 
stroke:#000000; stroke-width:0.0212; stroke-opacity:1; 
stroke-linecap:round; stroke-linejoin:round;">
</g>
<g style="fill:#000000; fill-opacity:1.0000; 
stroke:#000000; stroke-width:0.0000; stroke-opacity:1; 
stroke-linecap:round; stroke-linejoin:round;">
<circle cx="121.6660" cy="57.0230" r="0.9000" /> 
</g>
<g style="fill:#000000; fill-opacity:1.0000; 
stroke:#000000; stroke-width:0.0212; stroke-opacity:1; 
stroke-linecap:round; stroke-linejoin:round;">
</g>
<g style="fill:#000000; fill-opacity:1.0000; 
stroke:#000000; stroke-width:0.0000; stroke-opacity:1; 
stroke-linecap:round; stroke-linejoin:round;">
<circle cx="88.6460" cy="60.0710" r="0.9000" /> 
</g>
<g style="fill:#000000; fill-opacity:1.0000; 
stroke:#000000; stroke-width:0.0212; stroke-opacity:1; 
stroke-linecap:round; stroke-linejoin:round;">
</g>
<g style="fill:#000000; fill-opacity:1.0000; 
stroke:#000000; stroke-width:0.0000; stroke-opacity:1; 
stroke-linecap:round; stroke-linejoin:round;">
<circle cx="82.8040" cy="44.8310" r="0.9000" /> 
</g>
<g style="fill:#000000; fill-opacity:1.0000; 
stroke:#000000; stroke-width:0.0212; stroke-opacity:1; 
stroke-linecap:round; stroke-linejoin:round;">
</g>
<g style="fill:#000000; fill-opacity:1.0000; 
stroke:#000000; stroke-width:0.0000; stroke-opacity:1; 
stroke-linecap:round; stroke-linejoin:round;">
<circle cx="99.3140" cy="77.2160" r="0.9000" /> 
</g>
<g style="fill:#000000; fill-opacity:1.0000; 
stroke:#000000; stroke-width:0.0212; stroke-opacity:1; 
stroke-linecap:round; stroke-linejoin:round;">
</g>
<g style="fill:#000000; fill-opacity:1.0000; 
stroke:#000000; stroke-width:0.0000; stroke-opacity:1; 
stroke-linecap:round; stroke-linejoin:round;">
<circle cx="102.3620" cy="43.3070" r="0.9000" /> 
</g>
<g style="fill:#000000; fill-opacity:1.0000; 
stroke:#000000; stroke-width:0.0212; stroke-opacity:1; 
stroke-linecap:round; stroke-linejoin:round;">
</g>
<g >
</g>
<g style="fill:#000000; fill-opacity:1.0000; 
stroke:#000000; stroke-width:0.0212; stroke-opacity:1; 
stroke-linecap:round; stroke-linejoin:round;">
</g>
<g style="fill:#000000; fill-opacity:1.0000; 
stroke:#000000; stroke-width:0.5000; stroke-opacity:1; 
stroke-linecap:round; stroke-linejoin:round;">
</g>
<g style="fill:#000000; fill-opacity:0.0; 
stroke:#000000; stroke-width:0.5000; stroke-opacity:1; 
stroke-linecap:round; stroke-linejoin:round;">
<path d="M118.1100 36.9570
L118.1100 38.8620
" />
<path d="M120.6500 57.9120
L121.6660 57.0230
" />
<path d="M85.5780 47.2240
L87.2490 47.2240
" />
<path d="M119.7610 57.9120
L119.7610 40.5130
" />
<path d="M84.9630 42.5450
L84.9630 46.6090
" />
<path d="M81.9350 75.6720
L81.9350 73.6600
" />
<path d="M116.3320 35.1790
L118.1100 36.9570
" />
<path d="M112.6590 58.3030
L118.8620 58.3030
" />
<path d="M121.6660 57.0230
L121.2850 57.2770
" />
<path d="M119.7610 40.5130
L118.1100 38.8620
" />
<path d="M87.2490 47.2240
L89.3490 47.2240
" />
<path d="M90.9520 59.6700
L91.5670 59.0550
" />
<path d="M82.9310 44.7040
L82.8040 44.8310
" />
<path d="M103.5150 60.8430
L105.0390 60.8430
" />
<path d="M91.5670 59.0550
L101.7270 59.0550
" />
<path d="M119.2330 58.4400
L119.2330 58.6740
" />
<path d="M119.2330 58.6740
L119.2330 60.8330
" />
<path d="M80.0100 73.6600
L78.8670 72.5170
" />
<path d="M82.6770 76.4540
L81.9150 75.6920
" />
<path d="M91.3650 49.2400
L97.8650 49.2400
" />
<path d="M119.7610 57.9120
L119.2330 58.4400
" />
<path d="M90.9520 61.2140
L90.9520 68.4530
" />
<path d="M82.9310 41.7780
L82.9310 44.7040
" />
<path d="M90.9520 61.2140
L89.7890 61.2140
" />
<path d="M118.8620 58.3030
L119.2330 58.6740
" />
<path d="M82.4430 77.7440
L82.6770 77.9780
" />
<path d="M82.9310 41.7780
L84.1960 41.7780
" />
<path d="M84.1960 41.7780
L84.9630 42.5450
" />
<path d="M82.0420 35.1790
L116.3320 35.1790
" />
<path d="M78.8670 72.5170
L78.8670 38.3540
" />
<path d="M81.9150 75.6920
L81.9350 75.6720
" />
<path d="M90.9520 61.2140
L90.9520 59.6700
" />
<path d="M89.7890 61.2140
L88.6460 60.0710
" />
<path d="M119.7610 57.9120
L120.6500 57.9120
" />
<path d="M78.8670 38.3540
L82.0420 35.1790
" />
<path d="M82.6770 77.9780
L82.6770 76.4540
" />
<path d="M80.0100 73.6600
L81.9350 73.6600
" />
<path d="M101.7270 59.0550
L103.5150 60.8430
" />
<path d="M84.9630 46.6090
L85.5780 47.2240
" />
<path d="M89.3490 47.2240
L91.3650 49.2400
" />
<path d="M103.2610 63.3830
L105.0390 63.3830
" />
<path d="M102.3250 62.4470
L103.2610 63.3830
" />
<path d="M98.2980 62.4470
L102.3250 62.4470
" />
<path d="M93.4520 61.2140
L97.0650 61.2140
" />
<path d="M97.0650 61.2140
L98.2980 62.4470
" />
<path d="M94.5580 67.3470
L93.4520 68.4530
" />
<path d="M102.7330 65.9230
L105.0390 65.9230
" />
<path d="M98.2980 67.3470
L101.3090 67.3470
" />
<path d="M98.2980 67.3470
L94.5580 67.3470
" />
<path d="M101.3090 67.3470
L102.7330 65.9230
" />
<path d="M112.6590 60.8430
L109.3570 60.8430
" />
<path d="M82.9310 39.2430
L83.3120 39.6240
" />
<path d="M82.9310 39.2380
L81.5390 39.2380
" />
<path d="M98.8060 38.3540
L96.7740 40.3860
" />
<path d="M84.4350 74.5290
L85.8520 75.9460
" />
<path d="M87.3760 41.7830
L88.0110 42.4180
" />
<path d="M105.0390 58.3030
L107.0610 56.2810
" />
<path d="M92.8370 76.4540
L92.8370 77.9780
" />
<path d="M107.0610 39.2430
L106.1720 38.3540
" />
<path d="M109.3570 60.8430
L106.8170 58.3030
" />
<path d="M84.4350 72.4970
L84.4350 73.6600
" />
<path d="M85.8520 75.9460
L92.3290 75.9460
" />
<path d="M106.8170 58.3030
L105.0390 58.3030
" />
<path d="M112.6590 60.8430
L112.6590 63.3830
" />
<path d="M96.7740 40.3860
L92.9640 40.3860
" />
<path d="M112.6590 60.8430
L116.7230 60.8430
" />
<path d="M106.1720 38.3540
L98.8060 38.3540
" />
<path d="M116.7230 60.8430
L116.7330 60.8330
" />
<path d="M92.3290 75.9460
L92.8370 76.4540
" />
<path d="M80.2640 40.5130
L80.2640 69.7230
" />
<path d="M83.3120 39.6240
L87.3760 39.6240
" />
<path d="M82.9310 39.2380
L82.9310 39.2430
" />
<path d="M81.5390 39.2380
L80.2640 40.5130
" />
<path d="M81.6610 71.1200
L83.0580 71.1200
" />
<path d="M92.0750 42.4180
L92.9640 41.5290
" />
<path d="M92.9640 41.5290
L92.9640 40.3860
" />
<path d="M88.0110 42.4180
L92.0750 42.4180
" />
<path d="M84.4350 73.6600
L84.4350 74.5290
" />
<path d="M80.2640 69.7230
L81.6610 71.1200
" />
<path d="M83.0580 71.1200
L84.4350 72.4970
" />
<path d="M107.0610 56.2810
L107.0610 39.2430
" />
<path d="M87.3760 39.6240
L87.3760 41.7830
" />
<path d="M104.0130 40.3860
L105.0390 41.4120
" />
<path d="M100.5840 40.3860
L104.0130 40.3860
" />
<path d="M98.5520 77.9780
L99.3140 77.2160
" />
<path d="M87.2490 44.7240
L91.3490 44.7240
" />
<path d="M100.5840 40.3860
L100.5840 42.0210
" />
<path d="M105.0390 43.0630
L102.6060 43.0630
" />
<path d="M91.3650 44.7400
L97.8650 44.7400
" />
<path d="M91.3490 44.7240
L91.3650 44.7400
" />
<path d="M100.5840 42.0210
L97.8650 44.7400
" />
<path d="M102.6060 43.0630
L102.3620 43.3070
" />
<path d="M95.3770 77.9780
L98.5520 77.9780
" />
<path d="M105.0390 41.4120
L105.0390 43.0630
" />
<path d="M89.9160 39.6240
L89.9160 38.2270
" />
<path d="M91.4400 36.7030
L108.3310 36.7030
" />
<path d="M108.3310 36.7030
L110.4900 38.8620
" />
<path d="M89.9160 38.2270
L91.4400 36.7030
" />
<path d="M112.6590 71.0030
L114.0360 71.0030
" />
<path d="M118.8720 80.2640
L119.6340 79.5020
" />
<path d="M90.8050 80.2640
L118.8720 80.2640
" />
<path d="M115.3160 69.7230
L117.4750 69.7230
" />
<path d="M90.2970 79.7560
L90.8050 80.2640
" />
<path d="M118.8720 69.7230
L117.4750 69.7230
" />
<path d="M119.6340 70.4850
L118.8720 69.7230
" />
<path d="M119.6340 79.5020
L119.6340 70.4850
" />
<path d="M114.0360 71.0030
L115.3160 69.7230
" />
<path d="M90.2970 77.9780
L90.2970 79.7560
" />
<path d="M121.0310 68.9610
L121.0310 80.6450
" />
<path d="M87.7570 79.6290
L87.7570 77.9780
" />
<path d="M112.6590 68.4630
L113.6550 68.4630
" />
<path d="M114.9350 67.1830
L117.4750 67.1830
" />
<path d="M113.6550 68.4630
L114.9350 67.1830
" />
<path d="M117.4750 67.1830
L119.2530 67.1830
" />
<path d="M120.1420 81.5340
L89.6620 81.5340
" />
<path d="M119.2530 67.1830
L121.0310 68.9610
" />
<path d="M121.0310 80.6450
L120.1420 81.5340
" />
<path d="M89.6620 81.5340
L87.7570 79.6290
" />
<path d="M85.2170 80.2640
L85.2170 77.9780
" />
<path d="M112.6590 65.9230
L114.2900 65.9230
" />
<path d="M120.9040 83.0580
L88.0110 83.0580
" />
<path d="M122.6820 81.2800
L120.9040 83.0580
" />
<path d="M88.0110 83.0580
L85.2170 80.2640
" />
<path d="M122.6820 67.3100
L122.6820 81.2800
" />
<path d="M114.2900 65.9230
L115.5700 64.6430
" />
<path d="M115.5700 64.6430
L117.4750 64.6430
" />
<path d="M117.4750 64.6430
L120.0150 64.6430
" />
<path d="M120.0150 64.6430
L122.6820 67.3100
" />
<path d="M85.2320 49.2910
L87.5030 51.5620
" />
<path d="M99.6950 51.5620
L100.2030 51.0540
" />
<path d="M87.5030 51.5620
L99.6950 51.5620
" />
<path d="M100.2030 46.4820
L101.0820 45.6030
" />
<path d="M101.0820 45.6030
L105.0390 45.6030
" />
<path d="M82.6770 49.2910
L85.2320 49.2910
" />
<path d="M100.2030 51.0540
L100.2030 46.4820
" />
<path d="M100.2030 52.9590
L101.8540 51.3080
" />
<path d="M82.6770 51.8310
L85.1050 51.8310
" />
<path d="M85.1050 51.8310
L86.2330 52.9590
" />
<path d="M101.8540 51.3080
L101.8540 48.6410
" />
<path d="M86.2330 52.9590
L100.2030 52.9590
" />
<path d="M101.8540 48.6410
L102.3520 48.1430
" />
<path d="M102.3520 48.1430
L105.0390 48.1430
" />
<path d="M82.6770 54.3710
L100.8230 54.3710
" />
<path d="M104.5110 50.6830
L105.0390 50.6830
" />
<path d="M100.8230 54.3710
L104.5110 50.6830
" />
<path d="M101.3460 56.1340
L86.3600 56.1340
" />
<path d="M86.3600 56.1340
L85.5830 56.9110
" />
<path d="M85.5830 56.9110
L82.6770 56.9110
" />
<path d="M105.0390 53.2230
L104.2570 53.2230
" />
<path d="M104.2570 53.2230
L101.3460 56.1340
" />
<path d="M102.2350 57.7850
L104.2570 55.7630
" />
<path d="M104.2570 55.7630
L105.0390 55.7630
" />
<path d="M86.9950 57.7850
L102.2350 57.7850
" />
<path d="M85.3290 59.4510
L86.9950 57.7850
" />
<path d="M82.6770 59.4510
L85.3290 59.4510
" />
<path d="M87.2640 61.9910
L82.6770 61.9910
" />
<path d="M88.9000 63.6270
L87.2640 61.9910
" />
<path d="M105.0390 68.4630
L102.4790 68.4630
" />
<path d="M88.9000 70.4850
L88.9000 63.6270
" />
<path d="M89.7890 71.3740
L88.9000 70.4850
" />
<path d="M99.5680 71.3740
L89.7890 71.3740
" />
<path d="M102.4790 68.4630
L99.5680 71.3740
" />
<path d="M82.6770 64.5310
L85.4860 64.5310
" />
<path d="M103.6220 71.0030
L105.0390 71.0030
" />
<path d="M85.4860 64.5310
L87.1220 66.1670
" />
<path d="M87.1220 71.2470
L88.7730 72.8980
" />
<path d="M87.1220 66.1670
L87.1220 71.2470
" />
<path d="M88.7730 72.8980
L101.7270 72.8980
" />
<path d="M101.7270 72.8980
L103.6220 71.0030
" />
<path d="M84.5970 67.0710
L85.8520 68.3260
" />
<path d="M104.1600 74.4220
L105.0390 73.5430
" />
<path d="M82.6770 67.0710
L84.5970 67.0710
" />
<path d="M85.8520 72.2630
L88.0110 74.4220
" />
<path d="M88.0110 74.4220
L104.1600 74.4220
" />
<path d="M85.8520 68.3260
L85.8520 72.2630
" />
<path d="M105.0390 76.0830
L106.6900 76.0830
" />
<path d="M106.6900 76.0830
L108.8390 78.2320
" />
<path d="M114.8080 78.2320
L115.6970 77.3430
" />
<path d="M108.8390 78.2320
L114.8080 78.2320
" />
<path d="M115.6970 77.3430
L117.4750 77.3430
" />
<path d="M112.6590 76.0830
L113.9090 76.0830
" />
<path d="M115.1890 74.8030
L117.4750 74.8030
" />
<path d="M113.9090 76.0830
L115.1890 74.8030
" />
<path d="M115.1890 72.2630
L117.4750 72.2630
" />
<path d="M112.6590 73.5430
L113.9090 73.5430
" />
<path d="M113.9090 73.5430
L115.1890 72.2630
" />
<path d="M112.6590 55.7630
L117.4650 55.7630
" />
<path d="M117.4650 55.7630
L117.4750 55.7530
" />
<path d="M112.6590 53.2230
L117.4650 53.2230
" />
<path d="M117.4650 53.2230
L117.4750 53.2130
" />
<path d="M117.4650 50.6830
L117.4750 50.6730
" />
<path d="M112.6590 50.6830
L117.4650 50.6830
" />
<path d="M112.6590 48.1430
L117.4650 48.1430
" />
<path d="M117.4650 48.1430
L117.4750 48.1330
" />
<path d="M112.6590 45.6030
L117.4650 45.6030
" />
<path d="M117.4650 45.6030
L117.4750 45.5930
" />
<path d="M117.4650 43.0630
L117.4750 43.0530
" />
<path d="M112.6590 43.0630
L117.4650 43.0630
" />
</g>
<g >
</g>
</g>
<g style="fill:#000000; fill-opacity:0.0; 
stroke:#000000; stroke-width:0.5000; stroke-opacity:1; 
stroke-linecap:round; stroke-linejoin:round;">
<g >
</g>
<g >
</g>
<g >
</g>
<g >
</g>
<g >
</g>
<g >
</g>
<g >
</g>
<g >
</g>
<g >
</g>
<g >
</g>
<g >
</g>
<g >
</g>
<g >
</g>
<g >
</g>
<g >
</g>
<g >
</g>
<g >
</g>
<g >
</g>
<g >
</g>
</g>
<g style="fill:#000000; fill-opacity:0.0; 
stroke:#000000; stroke-width:0.5000; stroke-opacity:1; 
stroke-linecap:round; stroke-linejoin:round;">
<g >
</g>
<g >
</g>
<g >
</g>
<g >
</g>
<g >
</g>
<g >
</g>
<g >
</g>
<g >
</g>
<g >
</g>
<g >
</g>
<g >
</g>
<g >
</g>
<g >
</g>
<g >
</g>
<g >
</g>
<g >
</g>
<g >
</g>
<g >
</g>
<g >
</g>
</g>
<g style="fill:#000000; fill-opacity:0.0; 
stroke:#000000; stroke-width:0.5000; stroke-opacity:1; 
stroke-linecap:round; stroke-linejoin:round;">
<g >
</g>
<g >
</g>
<g >
</g>
<g >
</g>
<g >
</g>
<g >
</g>
<g >
</g>
<g >
</g>
<g >
</g>
<g >
</g>
<g >
</g>
<g >
</g>
<g >
</g>
<g >
</g>
<g >
</g>
<g >
</g>
<g >
</g>
<g >
</g>
<g >
</g>
</g>
<g style="fill:#000000; fill-opacity:0.0; 
stroke:#000000; stroke-width:0.5000; stroke-opacity:1; 
stroke-linecap:round; stroke-linejoin:round;">
<g >
</g>
<g style="fill:#000000; fill-opacity:1.0000; 
stroke:#000000; stroke-width:0.0000; stroke-opacity:1; 
stroke-linecap:round; stroke-linejoin:round;">
<circle cx="110.4900" cy="38.8620" r="0.8000" /> 
</g>
<g style="fill:#000000; fill-opacity:1.0000; 
stroke:#000000; stroke-width:0.0212; stroke-opacity:1; 
stroke-linecap:round; stroke-linejoin:round;">
</g>
<g style="fill:#000000; fill-opacity:1.0000; 
stroke:#000000; stroke-width:0.0000; stroke-opacity:1; 
stroke-linecap:round; stroke-linejoin:round;">
<circle cx="118.1100" cy="38.8620" r="0.8000" /> 
</g>
<g >
</g>
<g style="fill:#000000; fill-opacity:1.0000; 
stroke:#000000; stroke-width:0.0000; stroke-opacity:1; 
stroke-linecap:round; stroke-linejoin:round;">
<circle cx="81.9350" cy="73.6600" r="0.8000" /> 
</g>
<g style="fill:#000000; fill-opacity:1.0000; 
stroke:#000000; stroke-width:0.0212; stroke-opacity:1; 
stroke-linecap:round; stroke-linejoin:round;">
</g>
<g style="fill:#000000; fill-opacity:1.0000; 
stroke:#000000; stroke-width:0.0000; stroke-opacity:1; 
stroke-linecap:round; stroke-linejoin:round;">
<circle cx="84.4350" cy="73.6600" r="0.8000" /> 
</g>
<g style="fill:#000000; fill-opacity:1.0000; 
stroke:#000000; stroke-width:0.0212; stroke-opacity:1; 
stroke-linecap:round; stroke-linejoin:round;">
</g>
<g >
</g>
<g style="fill:#000000; fill-opacity:1.0000; 
stroke:#000000; stroke-width:0.0212; stroke-opacity:1; 
stroke-linecap:round; stroke-linejoin:round;">
</g>
<g style="fill:#000000; fill-opacity:1.0000; 
stroke:#000000; stroke-width:0.0000; stroke-opacity:1; 
stroke-linecap:round; stroke-linejoin:round;">
<path style="fill:#000000; fill-opacity:1.0000; 
stroke:#000000; stroke-width:0.0000; stroke-opacity:1; 
stroke-linecap:round; stroke-linejoin:round;fill-rule:evenodd;"
d="M 118.3250,54.9030
118.3250,56.6030
116.6250,56.6030
116.6250,54.9030
Z" /> 
<circle cx="117.4750" cy="53.2130" r="0.8500" /> 
<circle cx="117.4750" cy="50.6730" r="0.8500" /> 
<circle cx="117.4750" cy="48.1330" r="0.8500" /> 
<circle cx="117.4750" cy="45.5930" r="0.8500" /> 
<circle cx="117.4750" cy="43.0530" r="0.8500" /> 
</g>
<g >
</g>
<g style="fill:#000000; fill-opacity:1.0000; 
stroke:#000000; stroke-width:0.0000; stroke-opacity:1; 
stroke-linecap:round; stroke-linejoin:round;">
<path style="fill:#000000; fill-opacity:1.0000; 
stroke:#000000; stroke-width:0.0000; stroke-opacity:1; 
stroke-linecap:round; stroke-linejoin:round;fill-rule:evenodd;"
d="M 118.3250,76.4930
118.3250,78.1930
116.6250,78.1930
116.6250,76.4930
Z" /> 
<circle cx="117.4750" cy="74.8030" r="0.8500" /> 
<circle cx="117.4750" cy="72.2630" r="0.8500" /> 
<circle cx="117.4750" cy="69.7230" r="0.8500" /> 
<circle cx="117.4750" cy="67.1830" r="0.8500" /> 
<circle cx="117.4750" cy="64.6430" r="0.8500" /> 
</g>
<g >
</g>
<g style="fill:#000000; fill-opacity:1.0000; 
stroke:#000000; stroke-width:0.0000; stroke-opacity:1; 
stroke-linecap:round; stroke-linejoin:round;">
<circle cx="100.5840" cy="40.3860" r="0.8000" /> 
</g>
<g style="fill:#000000; fill-opacity:1.0000; 
stroke:#000000; stroke-width:0.0212; stroke-opacity:1; 
stroke-linecap:round; stroke-linejoin:round;">
</g>
<g style="fill:#000000; fill-opacity:1.0000; 
stroke:#000000; stroke-width:0.0000; stroke-opacity:1; 
stroke-linecap:round; stroke-linejoin:round;">
<circle cx="92.9640" cy="40.3860" r="0.8000" /> 
</g>
<g >
</g>
<g style="fill:#000000; fill-opacity:1.0000; 
stroke:#000000; stroke-width:0.0000; stroke-opacity:1; 
stroke-linecap:round; stroke-linejoin:round;">
<circle cx="97.8650" cy="49.2400" r="1.0000" /> 
</g>
<g style="fill:#000000; fill-opacity:1.0000; 
stroke:#000000; stroke-width:0.0212; stroke-opacity:1; 
stroke-linecap:round; stroke-linejoin:round;">
</g>
<g style="fill:#000000; fill-opacity:1.0000; 
stroke:#000000; stroke-width:0.0000; stroke-opacity:1; 
stroke-linecap:round; stroke-linejoin:round;">
<circle cx="91.3650" cy="49.2400" r="1.0000" /> 
</g>
<g style="fill:#000000; fill-opacity:1.0000; 
stroke:#000000; stroke-width:0.0212; stroke-opacity:1; 
stroke-linecap:round; stroke-linejoin:round;">
</g>
<g style="fill:#000000; fill-opacity:1.0000; 
stroke:#000000; stroke-width:0.0000; stroke-opacity:1; 
stroke-linecap:round; stroke-linejoin:round;">
<circle cx="97.8650" cy="44.7400" r="1.0000" /> 
</g>
<g style="fill:#000000; fill-opacity:1.0000; 
stroke:#000000; stroke-width:0.0212; stroke-opacity:1; 
stroke-linecap:round; stroke-linejoin:round;">
</g>
<g style="fill:#000000; fill-opacity:1.0000; 
stroke:#000000; stroke-width:0.0000; stroke-opacity:1; 
stroke-linecap:round; stroke-linejoin:round;">
<circle cx="91.3650" cy="44.7400" r="1.0000" /> 
</g>
<g style="fill:#000000; fill-opacity:1.0000; 
stroke:#000000; stroke-width:0.0212; stroke-opacity:1; 
stroke-linecap:round; stroke-linejoin:round;">
</g>
<g >
</g>
<g style="fill:#000000; fill-opacity:1.0000; 
stroke:#000000; stroke-width:0.0212; stroke-opacity:1; 
stroke-linecap:round; stroke-linejoin:round;">
</g>
<g style="fill:#000000; fill-opacity:1.0000; 
stroke:#000000; stroke-width:0.0000; stroke-opacity:1; 
stroke-linecap:round; stroke-linejoin:round;">
<path style="fill:#000000; fill-opacity:1.0000; 
stroke:#000000; stroke-width:0.0000; stroke-opacity:1; 
stroke-linecap:round; stroke-linejoin:round;fill-rule:evenodd;"
d="M 82.0810,40.0880
82.0810,38.3880
83.7810,38.3880
83.7810,40.0880
Z" /> 
<circle cx="82.9310" cy="41.7780" r="0.8500" /> 
</g>
<g >
</g>
<g style="fill:#000000; fill-opacity:1.0000; 
stroke:#000000; stroke-width:0.0000; stroke-opacity:1; 
stroke-linecap:round; stroke-linejoin:round;">
<path style="fill:#000000; fill-opacity:1.0000; 
stroke:#000000; stroke-width:0.0000; stroke-opacity:1; 
stroke-linecap:round; stroke-linejoin:round;fill-rule:evenodd;"
d="M 94.5270,77.1280
96.2270,77.1280
96.2270,78.8280
94.5270,78.8280
Z" /> 
<circle cx="92.8370" cy="77.9780" r="0.8500" /> 
<circle cx="90.2970" cy="77.9780" r="0.8500" /> 
<circle cx="87.7570" cy="77.9780" r="0.8500" /> 
<circle cx="85.2170" cy="77.9780" r="0.8500" /> 
<circle cx="82.6770" cy="77.9780" r="0.8500" /> 
</g>
<g >
</g>
<g style="fill:#000000; fill-opacity:1.0000; 
stroke:#000000; stroke-width:0.0000; stroke-opacity:1; 
stroke-linecap:round; stroke-linejoin:round;">
<path style="fill:#000000; fill-opacity:1.0000; 
stroke:#000000; stroke-width:0.0000; stroke-opacity:1; 
stroke-linecap:round; stroke-linejoin:round;fill-rule:evenodd;"
d="M 81.8270,50.1410
81.8270,48.4410
83.5270,48.4410
83.5270,50.1410
Z" /> 
<circle cx="82.6770" cy="51.8310" r="0.8500" /> 
<circle cx="82.6770" cy="54.3710" r="0.8500" /> 
<circle cx="82.6770" cy="56.9110" r="0.8500" /> 
<circle cx="82.6770" cy="59.4510" r="0.8500" /> 
<circle cx="82.6770" cy="61.9910" r="0.8500" /> 
<circle cx="82.6770" cy="64.5310" r="0.8500" /> 
<circle cx="82.6770" cy="67.0710" r="0.8500" /> 
</g>
<g >
</g>
<g style="fill:#000000; fill-opacity:1.0000; 
stroke:#000000; stroke-width:0.0000; stroke-opacity:1; 
stroke-linecap:round; stroke-linejoin:round;">
<circle cx="90.9520" cy="68.4530" r="0.8000" /> 
</g>
<g style="fill:#000000; fill-opacity:1.0000; 
stroke:#000000; stroke-width:0.0212; stroke-opacity:1; 
stroke-linecap:round; stroke-linejoin:round;">
</g>
<g style="fill:#000000; fill-opacity:1.0000; 
stroke:#000000; stroke-width:0.0000; stroke-opacity:1; 
stroke-linecap:round; stroke-linejoin:round;">
<circle cx="93.4520" cy="68.4530" r="0.8000" /> 
</g>
<g style="fill:#000000; fill-opacity:1.0000; 
stroke:#000000; stroke-width:0.0212; stroke-opacity:1; 
stroke-linecap:round; stroke-linejoin:round;">
</g>
<g >
</g>
<g style="fill:#000000; fill-opacity:1.0000; 
stroke:#000000; stroke-width:0.0212; stroke-opacity:1; 
stroke-linecap:round; stroke-linejoin:round;">
</g>
<g style="fill:#000000; fill-opacity:1.0000; 
stroke:#000000; stroke-width:0.0000; stroke-opacity:1; 
stroke-linecap:round; stroke-linejoin:round;">
<path style="fill:#000000; fill-opacity:1.0000; 
stroke:#000000; stroke-width:0.0000; stroke-opacity:1; 
stroke-linecap:round; stroke-linejoin:round;fill-rule:evenodd;"
d="M 90.8160,38.7240
90.8160,40.5240
89.0160,40.5240
89.0160,38.7240
Z" /> 
<circle cx="87.3760" cy="39.6240" r="0.9000" /> 
</g>
<g style="fill:#000000; fill-opacity:1.0000; 
stroke:#000000; stroke-width:0.0212; stroke-opacity:1; 
stroke-linecap:round; stroke-linejoin:round;">
</g>
<g >
</g>
<g style="fill:#000000; fill-opacity:1.0000; 
stroke:#000000; stroke-width:0.0212; stroke-opacity:1; 
stroke-linecap:round; stroke-linejoin:round;">
</g>
<g style="fill:#000000; fill-opacity:1.0000; 
stroke:#000000; stroke-width:0.0000; stroke-opacity:1; 
stroke-linecap:round; stroke-linejoin:round;">
<circle cx="87.2490" cy="47.2240" r="0.8000" /> 
</g>
<g style="fill:#000000; fill-opacity:1.0000; 
stroke:#000000; stroke-width:0.0212; stroke-opacity:1; 
stroke-linecap:round; stroke-linejoin:round;">
</g>
<g style="fill:#000000; fill-opacity:1.0000; 
stroke:#000000; stroke-width:0.0000; stroke-opacity:1; 
stroke-linecap:round; stroke-linejoin:round;">
<circle cx="87.2490" cy="44.7240" r="0.8000" /> 
</g>
<g style="fill:#000000; fill-opacity:1.0000; 
stroke:#000000; stroke-width:0.0212; stroke-opacity:1; 
stroke-linecap:round; stroke-linejoin:round;">
</g>
<g >
</g>
<g style="fill:#000000; fill-opacity:1.0000; 
stroke:#000000; stroke-width:0.0212; stroke-opacity:1; 
stroke-linecap:round; stroke-linejoin:round;">
</g>
<g style="fill:#000000; fill-opacity:1.0000; 
stroke:#000000; stroke-width:0.0000; stroke-opacity:1; 
stroke-linecap:round; stroke-linejoin:round;">
<circle cx="119.2330" cy="60.8330" r="0.8000" /> 
</g>
<g style="fill:#000000; fill-opacity:1.0000; 
stroke:#000000; stroke-width:0.0212; stroke-opacity:1; 
stroke-linecap:round; stroke-linejoin:round;">
</g>
<g style="fill:#000000; fill-opacity:1.0000; 
stroke:#000000; stroke-width:0.0000; stroke-opacity:1; 
stroke-linecap:round; stroke-linejoin:round;">
<circle cx="116.7330" cy="60.8330" r="0.8000" /> 
</g>
<g style="fill:#000000; fill-opacity:1.0000; 
stroke:#000000; stroke-width:0.0212; stroke-opacity:1; 
stroke-linecap:round; stroke-linejoin:round;">
</g>
<g >
</g>
<g style="fill:#000000; fill-opacity:1.0000; 
stroke:#000000; stroke-width:0.0212; stroke-opacity:1; 
stroke-linecap:round; stroke-linejoin:round;">
</g>
<g style="fill:#000000; fill-opacity:1.0000; 
stroke:#000000; stroke-width:0.0000; stroke-opacity:1; 
stroke-linecap:round; stroke-linejoin:round;">
<path style="fill:#000000; fill-opacity:1.0000; 
stroke:#000000; stroke-width:0.0000; stroke-opacity:1; 
stroke-linecap:round; stroke-linejoin:round;fill-rule:evenodd;"
d="M 104.2390,43.8630
104.2390,42.2630
105.8390,42.2630
105.8390,43.8630
Z" /> 
<circle cx="105.0390" cy="45.6030" r="0.8000" /> 
<circle cx="105.0390" cy="48.1430" r="0.8000" /> 
<circle cx="105.0390" cy="50.6830" r="0.8000" /> 
<circle cx="105.0390" cy="53.2230" r="0.8000" /> 
<circle cx="105.0390" cy="55.7630" r="0.8000" /> 
<circle cx="105.0390" cy="58.3030" r="0.8000" /> 
<circle cx="105.0390" cy="60.8430" r="0.8000" /> 
<circle cx="105.0390" cy="63.3830" r="0.8000" /> 
<circle cx="105.0390" cy="65.9230" r="0.8000" /> 
<circle cx="105.0390" cy="68.4630" r="0.8000" /> 
<circle cx="105.0390" cy="71.0030" r="0.8000" /> 
<circle cx="105.0390" cy="73.5430" r="0.8000" /> 
<circle cx="105.0390" cy="76.0830" r="0.8000" /> 
<circle cx="112.6590" cy="76.0830" r="0.8000" /> 
<circle cx="112.6590" cy="73.5430" r="0.8000" /> 
<circle cx="112.6590" cy="71.0030" r="0.8000" /> 
<circle cx="112.6590" cy="68.4630" r="0.8000" /> 
<circle cx="112.6590" cy="65.9230" r="0.8000" /> 
<circle cx="112.6590" cy="63.3830" r="0.8000" /> 
<circle cx="112.6590" cy="60.8430" r="0.8000" /> 
<circle cx="112.6590" cy="58.3030" r="0.8000" /> 
<circle cx="112.6590" cy="55.7630" r="0.8000" /> 
<circle cx="112.6590" cy="53.2230" r="0.8000" /> 
<circle cx="112.6590" cy="50.6830" r="0.8000" /> 
<circle cx="112.6590" cy="48.1430" r="0.8000" /> 
<circle cx="112.6590" cy="45.6030" r="0.8000" /> 
<circle cx="112.6590" cy="43.0630" r="0.8000" /> 
</g>
<g >
</g>
<g style="fill:#000000; fill-opacity:1.0000; 
stroke:#000000; stroke-width:0.0000; stroke-opacity:1; 
stroke-linecap:round; stroke-linejoin:round;">
<circle cx="98.2980" cy="67.3470" r="0.7500" /> 
</g>
<g style="fill:#000000; fill-opacity:1.0000; 
stroke:#000000; stroke-width:0.0212; stroke-opacity:1; 
stroke-linecap:round; stroke-linejoin:round;">
</g>
<g style="fill:#000000; fill-opacity:1.0000; 
stroke:#000000; stroke-width:0.0000; stroke-opacity:1; 
stroke-linecap:round; stroke-linejoin:round;">
<circle cx="98.2980" cy="62.4470" r="0.7500" /> 
</g>
<g style="fill:#000000; fill-opacity:1.0000; 
stroke:#000000; stroke-width:0.0212; stroke-opacity:1; 
stroke-linecap:round; stroke-linejoin:round;">
</g>
<g >
</g>
<g style="fill:#000000; fill-opacity:1.0000; 
stroke:#000000; stroke-width:0.0212; stroke-opacity:1; 
stroke-linecap:round; stroke-linejoin:round;">
</g>
<g style="fill:#000000; fill-opacity:1.0000; 
stroke:#000000; stroke-width:0.0000; stroke-opacity:1; 
stroke-linecap:round; stroke-linejoin:round;">
<circle cx="90.9520" cy="61.2140" r="0.8000" /> 
</g>
<g style="fill:#000000; fill-opacity:1.0000; 
stroke:#000000; stroke-width:0.0212; stroke-opacity:1; 
stroke-linecap:round; stroke-linejoin:round;">
</g>
<g style="fill:#000000; fill-opacity:1.0000; 
stroke:#000000; stroke-width:0.0000; stroke-opacity:1; 
stroke-linecap:round; stroke-linejoin:round;">
<circle cx="93.4520" cy="61.2140" r="0.8000" /> 
</g>
<g style="fill:#000000; fill-opacity:1.0000; 
stroke:#000000; stroke-width:0.0212; stroke-opacity:1; 
stroke-linecap:round; stroke-linejoin:round;">
</g>
<g >
</g>
<g >
</g>
<g >
</g>
</g>
<g style="fill:#000000; fill-opacity:1.0000; 
stroke:#000000; stroke-width:0.0212; stroke-opacity:1; 
stroke-linecap:round; stroke-linejoin:round;">
</g>
<g style="fill:#000000; fill-opacity:0.0; 
stroke:#000000; stroke-width:0.0500; stroke-opacity:1; 
stroke-linecap:round; stroke-linejoin:round;">
<path style="fill:#000000; fill-opacity:0.0; 
stroke:#000000; stroke-width:0.0500; stroke-opacity:1; 
stroke-linecap:round; stroke-linejoin:round;fill:none"
d="M 77.8890,34.2900
123.8890,34.2900
123.8890,84.2900
77.8890,84.2900
Z" /> 
<g >
</g>
<g >
</g>
<g >
</g>
<g >
</g>
<g >
</g>
<g >
</g>
<g >
</g>
<g >
</g>
<g >
</g>
<g >
</g>
<g >
</g>
<g >
</g>
<g >
</g>
<g >
</g>
<g >
</g>
<g >
</g>
<g >
</g>
<g >
</g>
<g >
</g>
</g>
<g style="fill:#000000; fill-opacity:0.0; 
stroke:#000000; stroke-width:0.0500; stroke-opacity:1; 
stroke-linecap:round; stroke-linejoin:round;">
<g >
</g>
<g >
</g>
<g >
</g>
<g >
</g>
<g >
</g>
<g >
</g>
<g >
</g>
<g >
</g>
<g >
</g>
<g >
</g>
<g >
</g>
<g >
</g>
<g >
</g>
<g >
</g>
<g >
</g>
<g >
</g>
<g >
</g>
<g >
</g>
<g >
</g>
</g> 
</svg>
